<?xml version="1.0" encoding="utf-8"?>
<!-- Generator: Adobe Illustrator 16.0.0, SVG Export Plug-In . SVG Version: 6.00 Build 0)  -->
<!DOCTYPE svg PUBLIC "-//W3C//DTD SVG 1.1//EN" "http://www.w3.org/Graphics/SVG/1.1/DTD/svg11.dtd">
<svg version="1.1" id="google" xmlns="http://www.w3.org/2000/svg" xmlns:xlink="http://www.w3.org/1999/xlink" x="0px" y="0px"
	 width="64px" height="64px" viewBox="0 0 64 64" enable-background="new 0 0 64 64" xml:space="preserve">
<g>
	<g>
		<path fill-rule="evenodd" clip-rule="evenodd" fill="#1ABB9C" d="M-0.161,61.831c0-20.545,0-41.09,0-61.635c1.042-2.215,2.873-2.717,5.177-2.71
			C23.09-2.46,41.165-2.458,59.239-2.519c2.163-0.007,3.928,0.476,5.266,2.21c0,20.713,0,41.427,0,62.14
			c-1.09,1.832-2.641,2.499-4.819,2.49C41.344,64.25,23.001,64.25,4.66,64.32C2.483,64.329,0.923,63.676-0.161,61.831z
			 M25.746,33.707c-3.572,1.286-7.575,2.044-10.81,4.045c-5.519,3.413-4.799,11,1.143,13.565c6.42,2.771,12.895,2.315,18.739-1.636
			c5.617-3.796,5.903-10.452,0.941-15.044c-0.801-0.74-1.664-1.416-2.523-2.089c-3.334-2.613-3.348-4.134-0.04-6.938
			c3.771-3.195,5.027-6.779,3.573-10.911c-0.512-1.454-1.528-2.73-2.19-3.875c1.713-0.776,3.514-1.593,5.314-2.41
			c-0.077-0.342-0.153-0.684-0.229-1.025C33.851,7.682,28.028,7.866,22.23,8.344c-1.403,0.115-2.852,1.025-4.066,1.875
			c-3.689,2.583-4.404,6.417-3.774,10.526c0.58,3.781,3.069,6.074,6.68,7.075c1.265,0.35,2.633,0.328,3.719,0.449
			C25.146,30.295,25.484,32.219,25.746,33.707z M40.195,31.235c1.955,0,3.661,0,5.585,0c0,1.962,0,3.607,0,5.252
			c1.177,0,2.119,0,3.29,0c0-1.853,0-3.496,0-5.448c1.934,0,3.639,0,5.293,0c0-1.375,0-2.424,0-3.779c-1.874,0-3.58,0-5.494,0
			c0-1.958,0-3.605,0-5.248c-1.17,0-2.115,0-3.276,0c0,1.85,0,3.496,0,5.444c-1.92,0-3.63,0-5.397,0
			C40.195,28.757,40.195,29.748,40.195,31.235z"/>
		<path fill-rule="evenodd" clip-rule="evenodd" fill="#101B1B" class='black' d="M-0.161,61.831c1.084,1.845,2.644,2.498,4.821,2.489
			c18.342-0.07,36.684-0.07,55.026,0.001c2.179,0.009,3.729-0.658,4.819-2.49c0,1.007,0,2.014,0,3.023
			c-21.556,0.003-43.11,0.003-64.666,0C-0.161,63.845-0.161,62.838-0.161,61.831z"/>
		<path fill-rule="evenodd" clip-rule="evenodd" fill="#101B1B" class='black' d="M64.505-0.309c-1.338-1.734-3.103-2.217-5.266-2.21
			C41.165-2.458,23.09-2.46,5.016-2.514C2.711-2.521,0.88-2.019-0.161,0.196c0-1.007,0-2.014,0-3.023
			C21.395-2.83,42.949-2.83,64.505-2.828C64.505-1.987,64.505-1.148,64.505-0.309z"/>
		<path fill-rule="evenodd" clip-rule="evenodd" fill="#101B1B" class='black' d="M25.746,33.707c-0.262-1.488-0.6-3.412-0.957-5.438
			c-1.086-0.121-2.455-0.099-3.719-0.449c-3.611-1.001-6.101-3.294-6.68-7.075c-0.63-4.109,0.085-7.943,3.774-10.526
			c1.214-0.85,2.663-1.76,4.066-1.875c5.798-0.478,11.621-0.662,17.434-0.953c0.076,0.342,0.152,0.684,0.229,1.025
			c-1.801,0.816-3.602,1.633-5.314,2.41c0.662,1.144,1.679,2.42,2.19,3.875c1.454,4.132,0.197,7.716-3.573,10.911
			c-3.308,2.803-3.294,4.324,0.04,6.938c0.859,0.673,1.723,1.349,2.523,2.089c4.962,4.592,4.676,11.248-0.941,15.044
			c-5.845,3.951-12.319,4.407-18.739,1.636c-5.942-2.565-6.662-10.152-1.143-13.565C18.171,35.751,22.173,34.993,25.746,33.707z
			 M26.515,50.568c0.047-0.119,0.094-0.238,0.141-0.357c0.915-0.104,1.848-0.129,2.743-0.325c2.591-0.567,4.816-1.663,5.412-4.565
			c0.57-2.776-0.78-4.703-2.71-6.6c-3.692-3.629-7.648-2.521-11.66-1.032c-2.456,0.912-3.688,2.87-3.742,5.464
			c-0.051,2.401,1.081,4.347,3.2,5.314C21.988,49.421,24.3,49.888,26.515,50.568z M19.658,16.401
			c0.012,3.146,1.236,6.536,3.063,8.267c1.637,1.551,3.491,2.242,5.725,1.288c2.154-0.92,3.5-2.504,3.178-4.853
			c-0.347-2.525-0.762-5.151-1.792-7.445c-1.357-3.026-3.92-4.043-6.531-3.322C20.674,11.062,19.644,12.777,19.658,16.401z"/>
		<path fill-rule="evenodd" clip-rule="evenodd" fill="#101B1B" class='black' d="M40.195,31.235c0-1.487,0-2.478,0-3.778c1.768,0,3.478,0,5.397,0
			c0-1.948,0-3.594,0-5.444c1.161,0,2.106,0,3.276,0c0,1.643,0,3.29,0,5.248c1.914,0,3.62,0,5.494,0c0,1.355,0,2.404,0,3.779
			c-1.654,0-3.359,0-5.293,0c0,1.952,0,3.595,0,5.448c-1.171,0-2.113,0-3.29,0c0-1.646,0-3.29,0-5.252
			C43.856,31.235,42.15,31.235,40.195,31.235z"/>
		<path fill-rule="evenodd" clip-rule="evenodd" fill="#1ABB9C" d="M26.515,50.568c-2.215-0.681-4.527-1.147-6.617-2.102
			c-2.119-0.968-3.251-2.913-3.2-5.314c0.055-2.594,1.286-4.552,3.742-5.464c4.012-1.489,7.968-2.597,11.66,1.032
			c1.93,1.896,3.28,3.823,2.71,6.6c-0.596,2.902-2.821,3.998-5.412,4.565c-0.895,0.196-1.828,0.222-2.743,0.325
			C26.609,50.33,26.562,50.449,26.515,50.568z"/>
		<path fill-rule="evenodd" clip-rule="evenodd" fill="#1ABB9C" d="M19.658,16.401c-0.014-3.624,1.016-5.339,3.645-6.065
			c2.61-0.721,5.173,0.296,6.531,3.322c1.029,2.293,1.444,4.919,1.792,7.445c0.322,2.348-1.024,3.933-3.178,4.853
			c-2.234,0.954-4.088,0.263-5.725-1.288C20.895,22.937,19.67,19.547,19.658,16.401z"/>
	</g>
</g>
</svg>
