<?xml version="1.0" encoding="utf-8"?>
<!-- Generator: Adobe Illustrator 16.0.0, SVG Export Plug-In . SVG Version: 6.00 Build 0)  -->
<!DOCTYPE svg PUBLIC "-//W3C//DTD SVG 1.1//EN" "http://www.w3.org/Graphics/SVG/1.1/DTD/svg11.dtd">
<svg version="1.1" id="Layer_1" xmlns="http://www.w3.org/2000/svg" xmlns:xlink="http://www.w3.org/1999/xlink" x="0px" y="0px"
	 width="64px" height="64px" viewBox="0 0 64 64" enable-background="new 0 0 64 64" xml:space="preserve">
<g>
	<g>
		<path fill-rule="evenodd" clip-rule="evenodd" fill="#1ABB9C" d="M64.125,64.122c-21.326,0-42.652,0-63.989,0
			c0-21.317,0-42.639,0-63.978c21.322,0,42.656,0,63.989,0C64.125,21.462,64.125,42.79,64.125,64.122z M32.112,0.252
			C14.652,0.18,0.53,14.302,0.237,31.469c-0.298,17.448,13.666,32.329,31.825,32.349c17.78,0.02,31.863-14.221,31.918-31.766
			C64.035,14.497,49.729,0.252,32.112,0.252z"/>
		<path fill-rule="evenodd" clip-rule="evenodd" fill='#101B1B' d="M32.112,0.252c17.617,0,31.923,14.245,31.869,31.799
			c-0.056,17.545-14.139,31.785-31.918,31.766c-18.159-0.02-32.123-14.9-31.825-32.349C0.53,14.302,14.652,0.18,32.112,0.252z
			 M13.102,35.771c-0.25-1.761-0.556-3.495-0.731-5.243c-0.368-3.66,0.486-6.976,2.947-9.803c0.112-0.128,0.125-0.422,0.069-0.604
			c-0.594-1.959-0.667-3.937-0.149-5.91c0.631-2.406,0.207-2.46,3.148-1.849c2.102,0.437,3.926,1.56,5.726,2.694
			c0.231,0.146,0.584,0.253,0.834,0.192c4.748-1.167,9.506-1.226,14.287-0.22c0.226,0.047,0.517-0.039,0.731-0.151
			c1.287-0.675,2.534-1.431,3.847-2.05c1.167-0.55,2.411-0.899,3.735-0.843c0.342,0.014,0.516,0.127,0.633,0.453
			c0.807,2.241,1.091,4.523,0.537,6.863c-0.096,0.404-0.014,0.648,0.255,0.931c1.248,1.318,2.145,2.848,2.714,4.577
			c0.787,2.394,0.651,4.85,0.484,7.3c-0.081,1.189-0.313,2.368-0.468,3.499c2.704-0.077,5.417-0.154,8.224-0.234
			c0.499-3.863,0.152-7.761-1.039-11.58c-1.811-5.804-5.146-10.563-10.034-14.17C38.601,2.056,24.876,2.207,14.898,9.964
			c-4.924,3.828-8.209,8.779-9.866,14.79c-1.005,3.648-1.195,7.354-0.704,11.018C7.352,35.771,10.275,35.771,13.102,35.771z
			 M40.748,58.636c5.279-1.791,9.52-4.68,12.932-8.774c2.882-3.456,4.809-7.383,5.783-11.767c-0.105-0.054-0.14-0.08-0.178-0.089
			c-2.644-0.611-5.333-0.534-8.018-0.502c-0.16,0.002-0.353,0.216-0.47,0.375c-0.64,0.866-1.164,1.841-1.907,2.604
			c-1.866,1.914-4.291,2.804-6.838,3.375c-1.226,0.274-2.472,0.455-3.781,0.691c1.983,1.574,2.526,3.675,2.482,6.027
			c-0.031,1.666-0.006,3.333-0.006,5C40.748,56.545,40.748,57.515,40.748,58.636z M27.085,44.614
			c-1.61-0.339-3.193-0.593-4.73-1.013c-3.375-0.922-6.244-2.603-8.102-5.71c-0.1-0.167-0.445-0.271-0.671-0.264
			c-1.829,0.063-3.66,0.121-5.484,0.261c-1.088,0.083-2.165,0.309-3.303,0.479c1.424,5.835,4.32,10.662,8.72,14.576
			c3.195,2.843,6.856,4.847,11.082,6.017c0-2.142,0-4.167,0-6.193c-0.791,0.088-1.55,0.208-2.314,0.254
			c-3.71,0.223-6.339-1.535-7.371-4.444c-0.558-1.572-1.563-2.883-3.049-3.76c-0.264-0.155-0.5-0.38-0.7-0.614
			c-0.36-0.422-0.236-0.789,0.31-0.91c0.3-0.066,0.625-0.091,0.93-0.058c1.899,0.205,3.201,1.32,4.144,2.878
			c1.91,3.156,4.927,3.594,7.947,2.29c0.163-0.069,0.346-0.247,0.391-0.41C25.261,46.631,25.947,45.475,27.085,44.614z
			 M13.998,37.183c-0.478-0.294-0.171-1.054-0.937-1.064c-2.038-0.03-4.076-0.104-6.114-0.108c-0.841-0.001-1.683,0.133-2.578,0.209
			c0.136,0.678,0.252,1.254,0.342,1.695C7.829,37.669,10.841,37.432,13.998,37.183z M51.177,37.034
			c2.813,0.169,5.575,0.336,8.409,0.506c0.078-0.452,0.18-1.032,0.288-1.658c-0.524-0.05-0.997-0.145-1.467-0.131
			c-2.114,0.063-4.228,0.17-6.342,0.226c-0.426,0.011-0.653,0.122-0.722,0.548C51.315,36.704,51.23,36.875,51.177,37.034z
			 M32.245,48.642c0,3.813,0,7.565,0,11.369c0.31-0.017,0.665-0.036,0.893-0.049c0-3.839,0-7.571,0-11.32
			C32.79,48.642,32.585,48.642,32.245,48.642z M28.776,59.773c0-3.595,0-7.123,0-10.652c-0.289,0.266-0.536,0.562-0.625,0.899
			c-0.146,0.558-0.261,1.141-0.267,1.714c-0.027,2.631-0.012,5.263-0.012,7.94C28.106,59.7,28.388,59.731,28.776,59.773z
			 M36.663,49.155c0,3.528,0,6.972,0,10.455c0.358-0.062,0.638-0.11,0.872-0.15c0-0.641,0.002-1.235,0-1.83
			c-0.008-2.12,0.004-4.239-0.035-6.358C37.486,50.51,37.281,49.779,36.663,49.155z M12.36,43.881c0.26,0.387,0.56,0.487,0.9,0.221
			c0.074-0.058,0.086-0.354,0.024-0.4C12.959,43.462,12.642,43.492,12.36,43.881z M24.165,49.679
			c0.003-0.062,0.006-0.122,0.009-0.184c-0.16-0.085-0.325-0.247-0.477-0.234c-0.19,0.015-0.368,0.172-0.552,0.268
			c0.155,0.124,0.298,0.326,0.467,0.351C23.784,49.903,23.98,49.753,24.165,49.679z M15.104,44.671
			c-0.364-0.146-0.564-0.301-0.733-0.272c-0.168,0.028-0.305,0.242-0.455,0.375c0.187,0.094,0.371,0.25,0.563,0.261
			C14.627,45.041,14.785,44.866,15.104,44.671z M20.095,50.357c0.225-0.211,0.373-0.35,0.521-0.488
			c-0.173-0.113-0.34-0.304-0.52-0.317c-0.149-0.011-0.313,0.188-0.47,0.295C19.76,49.993,19.895,50.139,20.095,50.357z
			 M21.848,49.373c-0.199,0.219-0.335,0.369-0.472,0.519c0.156,0.106,0.318,0.305,0.466,0.294c0.18-0.013,0.347-0.201,0.52-0.314
			C22.214,49.729,22.067,49.586,21.848,49.373z M15.878,45.893c-0.001-0.064-0.002-0.13-0.003-0.194
			c-0.191-0.075-0.388-0.219-0.572-0.204c-0.156,0.012-0.299,0.205-0.447,0.318c0.152,0.107,0.301,0.295,0.458,0.302
			C15.499,46.122,15.69,45.973,15.878,45.893z M16.84,48.823c0.439-0.336,0.601-0.459,0.762-0.582
			c-0.161-0.123-0.318-0.339-0.482-0.344s-0.423,0.169-0.477,0.321C16.592,48.364,16.753,48.584,16.84,48.823z M18.344,49.657
			c0.224-0.179,0.368-0.295,0.513-0.41c-0.179-0.126-0.346-0.323-0.539-0.353c-0.129-0.02-0.294,0.199-0.444,0.312
			C18.015,49.341,18.156,49.477,18.344,49.657z M16.211,46.581c-0.221,0.197-0.373,0.333-0.524,0.468
			c0.149,0.111,0.302,0.316,0.447,0.312c0.174-0.006,0.341-0.191,0.511-0.3C16.524,46.928,16.403,46.793,16.211,46.581z"/>
		<path fill-rule="evenodd" clip-rule="evenodd" fill="#1ABB9C" d="M13.102,35.771c-2.826,0-5.75,0-8.773,0
			c-0.491-3.663-0.302-7.37,0.704-11.018c1.657-6.01,4.942-10.962,9.866-14.79c9.978-7.757,23.702-7.908,33.954-0.342
			c4.888,3.607,8.224,8.366,10.034,14.17c1.191,3.819,1.538,7.717,1.039,11.58c-2.807,0.08-5.52,0.157-8.224,0.234
			c0.155-1.131,0.387-2.31,0.468-3.499c0.167-2.45,0.303-4.906-0.484-7.3c-0.569-1.729-1.466-3.258-2.714-4.577
			c-0.269-0.283-0.351-0.527-0.255-0.931c0.554-2.339,0.27-4.622-0.537-6.863c-0.117-0.326-0.291-0.439-0.633-0.453
			c-1.324-0.056-2.568,0.293-3.735,0.843c-1.313,0.619-2.56,1.375-3.847,2.05c-0.215,0.112-0.506,0.198-0.731,0.151
			c-4.781-1.005-9.539-0.947-14.287,0.22c-0.25,0.062-0.603-0.046-0.834-0.192c-1.8-1.135-3.624-2.257-5.726-2.694
			c-2.941-0.611-2.517-0.557-3.148,1.849c-0.518,1.973-0.445,3.951,0.149,5.91c0.056,0.182,0.042,0.476-0.069,0.604
			c-2.461,2.827-3.315,6.143-2.947,9.803C12.546,32.276,12.852,34.011,13.102,35.771z"/>
		<path fill-rule="evenodd" clip-rule="evenodd" fill="#1ABB9C" d="M40.748,58.636c0-1.121,0-2.091,0-3.06
			c0-1.667-0.025-3.334,0.006-5c0.044-2.353-0.499-4.453-2.482-6.027c1.31-0.236,2.556-0.417,3.781-0.691
			c2.547-0.571,4.972-1.461,6.838-3.375c0.743-0.763,1.268-1.737,1.907-2.604c0.117-0.159,0.31-0.373,0.47-0.375
			c2.685-0.032,5.374-0.109,8.018,0.502c0.038,0.009,0.072,0.035,0.178,0.089c-0.975,4.384-2.901,8.311-5.783,11.767
			C50.268,53.956,46.027,56.845,40.748,58.636z"/>
		<path fill-rule="evenodd" clip-rule="evenodd" fill="#1ABB9C" d="M27.085,44.614c-1.138,0.86-1.824,2.017-2.201,3.379
			c-0.045,0.163-0.229,0.341-0.391,0.41c-3.021,1.304-6.037,0.866-7.947-2.29c-0.943-1.558-2.245-2.673-4.144-2.878
			c-0.305-0.033-0.629-0.009-0.93,0.058c-0.546,0.121-0.669,0.488-0.31,0.91c0.2,0.234,0.437,0.459,0.7,0.614
			c1.486,0.877,2.491,2.188,3.049,3.76c1.032,2.909,3.661,4.667,7.371,4.444c0.764-0.046,1.523-0.166,2.314-0.254
			c0,2.026,0,4.052,0,6.193c-4.226-1.17-7.887-3.174-11.082-6.017c-4.399-3.914-7.295-8.741-8.72-14.576
			c1.139-0.171,2.215-0.396,3.303-0.479c1.824-0.14,3.655-0.198,5.484-0.261c0.227-0.008,0.572,0.097,0.671,0.264
			c1.858,3.107,4.728,4.788,8.102,5.71C23.892,44.021,25.475,44.275,27.085,44.614z"/>
		<path fill-rule="evenodd" clip-rule="evenodd" fill="#1ABB9C" d="M13.998,37.183c-3.157,0.249-6.168,0.486-9.287,0.731
			c-0.089-0.441-0.206-1.018-0.342-1.695c0.895-0.076,1.737-0.21,2.578-0.209c2.038,0.004,4.076,0.078,6.114,0.108
			C13.827,36.129,13.52,36.889,13.998,37.183z"/>
		<path fill-rule="evenodd" clip-rule="evenodd" fill="#1ABB9C" d="M51.177,37.034c0.054-0.159,0.139-0.33,0.167-0.51
			c0.068-0.426,0.296-0.537,0.722-0.548c2.114-0.056,4.228-0.163,6.342-0.226c0.47-0.014,0.942,0.081,1.467,0.131
			c-0.108,0.626-0.21,1.206-0.288,1.658C56.752,37.37,53.989,37.203,51.177,37.034z"/>
		<path fill-rule="evenodd" clip-rule="evenodd" fill="#1ABB9C" d="M32.245,48.642c0.34,0,0.545,0,0.893,0c0,3.749,0,7.481,0,11.32
			c-0.228,0.013-0.583,0.032-0.893,0.049C32.245,56.207,32.245,52.454,32.245,48.642z"/>
		<path fill-rule="evenodd" clip-rule="evenodd" fill="#1ABB9C" d="M28.776,59.773c-0.388-0.042-0.669-0.073-0.903-0.099
			c0-2.678-0.015-5.31,0.012-7.94c0.006-0.573,0.12-1.156,0.267-1.714c0.089-0.338,0.335-0.634,0.625-0.899
			C28.776,52.65,28.776,56.179,28.776,59.773z"/>
		<path fill-rule="evenodd" clip-rule="evenodd" fill="#1ABB9C" d="M36.663,49.155c0.618,0.624,0.823,1.354,0.837,2.116
			c0.039,2.119,0.027,4.238,0.035,6.358c0.002,0.595,0,1.189,0,1.83c-0.234,0.04-0.514,0.089-0.872,0.15
			C36.663,56.127,36.663,52.684,36.663,49.155z"/>
		<path fill-rule="evenodd" clip-rule="evenodd" fill="#1ABB9C" d="M12.36,43.881c0.282-0.389,0.6-0.419,0.924-0.18
			c0.063,0.047,0.05,0.343-0.024,0.4C12.919,44.368,12.62,44.268,12.36,43.881z"/>
		<path fill-rule="evenodd" clip-rule="evenodd" fill="#1ABB9C" d="M24.165,49.679c-0.185,0.074-0.381,0.225-0.553,0.2
			c-0.169-0.024-0.313-0.227-0.467-0.351c0.184-0.096,0.362-0.253,0.552-0.268c0.152-0.013,0.317,0.149,0.477,0.234
			C24.171,49.557,24.168,49.617,24.165,49.679z"/>
		<path fill-rule="evenodd" clip-rule="evenodd" fill="#1ABB9C" d="M15.104,44.671c-0.319,0.195-0.478,0.37-0.626,0.363
			c-0.191-0.011-0.375-0.167-0.563-0.261c0.15-0.133,0.287-0.347,0.455-0.375C14.54,44.37,14.741,44.525,15.104,44.671z"/>
		<path fill-rule="evenodd" clip-rule="evenodd" fill="#1ABB9C" d="M20.095,50.357c-0.2-0.219-0.334-0.364-0.468-0.511
			c0.157-0.106,0.321-0.306,0.47-0.295c0.18,0.014,0.347,0.204,0.52,0.317C20.468,50.008,20.319,50.146,20.095,50.357z"/>
		<path fill-rule="evenodd" clip-rule="evenodd" fill="#1ABB9C" d="M21.848,49.373c0.219,0.213,0.367,0.355,0.514,0.498
			c-0.173,0.113-0.34,0.302-0.52,0.314c-0.147,0.011-0.31-0.188-0.466-0.294C21.512,49.742,21.648,49.592,21.848,49.373z"/>
		<path fill-rule="evenodd" clip-rule="evenodd" fill="#1ABB9C" d="M15.878,45.893c-0.188,0.08-0.38,0.229-0.564,0.222
			c-0.157-0.007-0.306-0.194-0.458-0.302c0.148-0.113,0.291-0.307,0.447-0.318c0.185-0.015,0.381,0.129,0.572,0.204
			C15.876,45.763,15.877,45.828,15.878,45.893z"/>
		<path fill-rule="evenodd" clip-rule="evenodd" fill="#1ABB9C" d="M16.84,48.823c-0.087-0.239-0.248-0.459-0.197-0.604
			c0.054-0.152,0.313-0.326,0.477-0.321s0.322,0.221,0.482,0.344C17.441,48.364,17.28,48.487,16.84,48.823z"/>
		<path fill-rule="evenodd" clip-rule="evenodd" fill="#1ABB9C" d="M18.344,49.657c-0.188-0.181-0.329-0.316-0.47-0.451
			c0.149-0.112,0.315-0.331,0.444-0.312c0.193,0.029,0.36,0.227,0.539,0.353C18.712,49.362,18.567,49.479,18.344,49.657z"/>
		<path fill-rule="evenodd" clip-rule="evenodd" fill="#1ABB9C" d="M16.211,46.581c0.192,0.212,0.313,0.347,0.434,0.479
			c-0.17,0.108-0.337,0.294-0.511,0.3c-0.145,0.005-0.298-0.2-0.447-0.312C15.839,46.914,15.99,46.778,16.211,46.581z"/>
	</g>
</g>
</svg>