<?xml version="1.0" encoding="utf-8"?>
<!-- Generator: Adobe Illustrator 16.0.0, SVG Export Plug-In . SVG Version: 6.00 Build 0)  -->
<!DOCTYPE svg PUBLIC "-//W3C//DTD SVG 1.1//EN" "http://www.w3.org/Graphics/SVG/1.1/DTD/svg11.dtd">
<svg version="1.1" id="Layer_1" xmlns="http://www.w3.org/2000/svg" xmlns:xlink="http://www.w3.org/1999/xlink" x="0px" y="0px"
	 width="64px" height="64px" viewBox="0 0 64 64" enable-background="new 0 0 64 64" xml:space="preserve">
<g>
	<g>
		<path fill-rule="evenodd" clip-rule="evenodd" fill="#1ABB9C" d="M64.128,64.128c-21.333,0-42.667,0-64,0c0-21.333,0-42.667,0-64
			c21.333,0,42.667,0,64,0C64.128,21.461,64.128,42.795,64.128,64.128z M34.317,28.834c0-0.888-0.03-1.628,0.01-2.365
			c0.032-0.59-0.129-0.825-0.775-0.814c-2.303,0.038-4.607,0.033-6.911,0.002c-0.567-0.008-0.714,0.156-0.712,0.718
			c0.017,7.808,0.015,15.615-0.001,23.423c-0.001,0.525,0.138,0.696,0.676,0.689c2.261-0.026,4.522-0.011,6.784-0.011
			c0.928-0.001,0.929-0.001,0.93-0.957c0.005-4.479,0.016-8.959,0.008-13.438c-0.002-1.205,0.475-2.198,1.273-3.046
			c1.164-1.237,2.632-1.53,4.227-1.166c1.527,0.349,2.31,1.47,2.625,2.914c0.175,0.804,0.259,1.643,0.264,2.466
			c0.026,4.16,0.022,8.32,0.002,12.479c-0.002,0.582,0.167,0.77,0.762,0.761c2.304-0.032,4.608-0.034,6.911,0.001
			c0.608,0.01,0.747-0.194,0.741-0.764c-0.027-2.581,0.005-5.163-0.017-7.744c-0.022-2.685,0.073-5.384-0.163-8.052
			c-0.367-4.149-2.649-8.279-8.329-8.826c-3.013-0.29-5.662,0.513-7.664,2.934C34.771,28.262,34.594,28.49,34.317,28.834z
			 M21.548,38.015c0-3.881-0.012-7.762,0.012-11.643c0.004-0.571-0.167-0.721-0.724-0.714c-2.345,0.029-4.691,0.026-7.037,0.001
			c-0.52-0.005-0.653,0.179-0.653,0.667c0.011,7.826,0.013,15.652,0,23.477c-0.001,0.538,0.184,0.688,0.704,0.684
			c2.303-0.023,4.606-0.038,6.908,0.007c0.682,0.014,0.806-0.218,0.802-0.837C21.535,45.776,21.547,41.896,21.548,38.015z
			 M17.368,22.492c0.462-0.064,0.932-0.095,1.385-0.198c1.856-0.421,3.234-1.995,3.31-3.751c0.098-2.261-0.954-3.952-2.953-4.523
			c-0.759-0.217-1.599-0.255-2.396-0.218c-2.606,0.12-4.469,2.574-3.954,5.129C13.201,21.114,14.944,22.446,17.368,22.492z"/>
		<path fill-rule="evenodd" clip-rule="evenodd" fill="#101B1B" d="M34.317,28.834c0.276-0.344,0.454-0.572,0.639-0.795
			c2.002-2.42,4.651-3.224,7.664-2.934c5.68,0.546,7.962,4.676,8.329,8.826c0.236,2.668,0.141,5.367,0.163,8.052
			c0.021,2.581-0.011,5.163,0.017,7.744c0.006,0.569-0.133,0.773-0.741,0.764c-2.303-0.035-4.607-0.033-6.911-0.001
			c-0.595,0.009-0.764-0.179-0.762-0.761c0.021-4.159,0.024-8.319-0.002-12.479c-0.005-0.823-0.089-1.662-0.264-2.466
			c-0.315-1.444-1.098-2.565-2.625-2.914c-1.595-0.364-3.063-0.071-4.227,1.166c-0.799,0.848-1.275,1.841-1.273,3.046
			c0.008,4.479-0.003,8.959-0.008,13.438c-0.001,0.956-0.002,0.956-0.93,0.957c-2.261,0-4.523-0.016-6.784,0.011
			c-0.538,0.007-0.677-0.164-0.676-0.689c0.017-7.808,0.019-15.615,0.001-23.423c-0.001-0.563,0.146-0.726,0.712-0.718
			c2.304,0.031,4.608,0.036,6.911-0.002c0.646-0.011,0.808,0.224,0.775,0.814C34.287,27.207,34.317,27.947,34.317,28.834z"/>
		<path fill-rule="evenodd" clip-rule="evenodd" fill="#101B1B" d="M21.547,38.015c0,3.881-0.013,7.762,0.013,11.643
			c0.004,0.619-0.121,0.851-0.802,0.837c-2.302-0.045-4.605-0.03-6.908-0.007c-0.521,0.005-0.705-0.146-0.704-0.684
			c0.013-7.825,0.012-15.651,0-23.477c0-0.488,0.133-0.672,0.653-0.667c2.345,0.025,4.691,0.028,7.037-0.001
			c0.557-0.007,0.728,0.143,0.724,0.714C21.536,30.253,21.548,34.134,21.547,38.015z"/>
		<path fill-rule="evenodd" clip-rule="evenodd" fill="#101B1B" d="M17.368,22.492c-2.423-0.046-4.167-1.378-4.606-3.562
			c-0.515-2.555,1.347-5.009,3.954-5.129c0.796-0.037,1.637,0.001,2.396,0.218c1.999,0.571,3.05,2.262,2.953,4.523
			c-0.076,1.757-1.454,3.331-3.31,3.751C18.299,22.396,17.83,22.428,17.368,22.492z"/>
	</g>
</g>
</svg>
